<svg width="20" height="20" viewBox="0 0 20 20" fill="none" xmlns="http://www.w3.org/2000/svg">
<path d="M8.33268 8.12508C8.79292 8.12508 9.16602 8.49818 9.16602 8.95842V13.9584C9.16602 14.4187 8.79292 14.7917 8.33268 14.7917C7.87245 14.7917 7.49935 14.4187 7.49935 13.9584V8.95842C7.49935 8.49818 7.87245 8.12508 8.33268 8.12508Z" fill="#667085"/>
<path d="M12.4993 8.95842C12.4993 8.49818 12.1263 8.12508 11.666 8.12508C11.2058 8.12508 10.8327 8.49818 10.8327 8.95842V13.9584C10.8327 14.4187 11.2058 14.7917 11.666 14.7917C12.1263 14.7917 12.4993 14.4187 12.4993 13.9584V8.95842Z" fill="#667085"/>
<path fill-rule="evenodd" clip-rule="evenodd" d="M14.9993 5.00008V4.16675C14.9993 2.78604 13.8801 1.66675 12.4993 1.66675H7.49935C6.11864 1.66675 4.99935 2.78604 4.99935 4.16675V5.00008H3.74935C3.28911 5.00008 2.91602 5.37318 2.91602 5.83342C2.91602 6.29365 3.28911 6.66675 3.74935 6.66675H4.16602V15.8334C4.16602 17.2141 5.2853 18.3334 6.66602 18.3334H13.3327C14.7134 18.3334 15.8327 17.2141 15.8327 15.8334V6.66675H16.2493C16.7096 6.66675 17.0827 6.29365 17.0827 5.83342C17.0827 5.37318 16.7096 5.00008 16.2493 5.00008H14.9993ZM12.4993 3.33341H7.49935C7.03911 3.33341 6.66602 3.70651 6.66602 4.16675V5.00008H13.3327V4.16675C13.3327 3.70651 12.9596 3.33341 12.4993 3.33341ZM14.166 6.66675H5.83268V15.8334C5.83268 16.2937 6.20578 16.6667 6.66602 16.6667H13.3327C13.7929 16.6667 14.166 16.2937 14.166 15.8334V6.66675Z" fill="#667085"/>
</svg>
