<svg width="20" height="20" viewBox="0 0 20 20" fill="none" xmlns="http://www.w3.org/2000/svg">
<path fill-rule="evenodd" clip-rule="evenodd" d="M17.3037 6.82016C18.28 5.84385 18.28 4.26093 17.3037 3.28462L16.7145 2.69537C15.7382 1.71906 14.1552 1.71906 13.1789 2.69537L3.68999 12.1843C3.34526 12.529 3.10885 12.967 3.00985 13.4444L2.34013 16.6738C2.21835 17.261 2.73809 17.7807 3.32532 17.6589L6.55467 16.9892C7.03204 16.8902 7.47005 16.6538 7.81479 16.3091L17.3037 6.82016ZM16.1252 4.46313L15.536 3.87388C15.2105 3.54844 14.6829 3.54844 14.3575 3.87388L13.4735 4.75779L15.2413 6.52556L16.1252 5.64165C16.4507 5.31621 16.4507 4.78857 16.1252 4.46313ZM14.0628 7.70407L12.295 5.9363L4.86851 13.3628C4.75359 13.4777 4.67479 13.6237 4.64179 13.7829L4.22984 15.7692L6.21624 15.3573C6.37536 15.3243 6.52137 15.2455 6.63628 15.1306L14.0628 7.70407Z" fill="#667085"/>
</svg>
