<svg width="972" height="184" viewBox="0 0 972 184" fill="none" xmlns="http://www.w3.org/2000/svg">
<rect x="0.5" y="0.5" width="971" height="183" rx="7.5" fill="#F9F9FC"/>
<rect x="320" y="24" width="100" height="100" rx="8" fill="#E0E2E7"/>
<rect x="392" y="28" width="24" height="24" rx="12" fill="#CFE7DC"/>
<path fill-rule="evenodd" clip-rule="evenodd" d="M408.758 35.8192C409.042 36.0535 409.083 36.4737 408.848 36.7577L403.129 43.6902C403.009 43.8355 402.793 43.8526 402.651 43.728L399.56 41C399.283 40.7564 399.257 40.3351 399.501 40.059C399.744 39.7829 400.166 39.7566 400.442 40.0002L402.758 42.0442L407.82 35.9092C408.054 35.6252 408.474 35.5849 408.758 35.8192Z" fill="#0D894F"/>
<rect x="436" y="24" width="100" height="100" rx="8" fill="#E0E2E7"/>
<rect x="508" y="28" width="24" height="24" rx="12" fill="#CFE7DC"/>
<path fill-rule="evenodd" clip-rule="evenodd" d="M524.758 35.8192C525.042 36.0535 525.083 36.4737 524.848 36.7577L519.129 43.6902C519.009 43.8355 518.793 43.8526 518.651 43.728L515.56 41C515.283 40.7564 515.257 40.3351 515.501 40.059C515.744 39.7829 516.166 39.7566 516.442 40.0002L518.758 42.0442L523.82 35.9092C524.054 35.6252 524.474 35.5849 524.758 35.8192Z" fill="#0D894F"/>
<rect x="552" y="24" width="100" height="100" rx="8" fill="#E0E2E7"/>
<rect x="624" y="28" width="24" height="24" rx="12" fill="#CFE7DC"/>
<path fill-rule="evenodd" clip-rule="evenodd" d="M640.758 35.8192C641.042 36.0535 641.083 36.4737 640.848 36.7577L635.129 43.6902C635.009 43.8355 634.793 43.8526 634.651 43.728L631.56 41C631.283 40.7564 631.257 40.3351 631.501 40.059C631.744 39.7829 632.166 39.7566 632.442 40.0002L634.758 42.0442L639.82 35.9092C640.054 35.6252 640.474 35.5849 640.758 35.8192Z" fill="#0D894F"/>
<path d="M338.375 155H335.233V144.818H338.514C339.502 144.818 340.347 145.022 341.05 145.43C341.752 145.834 342.291 146.416 342.665 147.175C343.04 147.93 343.227 148.835 343.227 149.889C343.227 150.95 343.038 151.863 342.661 152.629C342.283 153.391 341.732 153.978 341.01 154.388C340.287 154.796 339.409 155 338.375 155ZM336.466 153.906H338.295C339.137 153.906 339.835 153.744 340.388 153.419C340.942 153.094 341.355 152.632 341.626 152.032C341.898 151.432 342.034 150.718 342.034 149.889C342.034 149.067 341.9 148.36 341.631 147.766C341.363 147.17 340.962 146.712 340.428 146.394C339.895 146.073 339.23 145.912 338.435 145.912H336.466V153.906ZM345.206 155V147.364H346.34V148.517H346.419C346.559 148.139 346.811 147.833 347.175 147.597C347.54 147.362 347.951 147.244 348.408 147.244C348.494 147.244 348.602 147.246 348.731 147.249C348.86 147.253 348.958 147.258 349.025 147.264V148.457C348.985 148.447 348.894 148.433 348.751 148.413C348.612 148.389 348.464 148.378 348.309 148.378C347.937 148.378 347.606 148.456 347.314 148.612C347.026 148.764 346.797 148.976 346.628 149.248C346.463 149.516 346.38 149.823 346.38 150.168V155H345.206ZM352.733 155.179C352.249 155.179 351.809 155.088 351.415 154.906C351.021 154.72 350.707 154.453 350.475 154.105C350.243 153.754 350.127 153.33 350.127 152.832C350.127 152.395 350.214 152.04 350.386 151.768C350.558 151.493 350.789 151.278 351.077 151.122C351.365 150.966 351.684 150.85 352.032 150.774C352.383 150.695 352.736 150.632 353.09 150.585C353.554 150.526 353.931 150.481 354.219 150.451C354.511 150.418 354.723 150.363 354.855 150.287C354.991 150.211 355.059 150.078 355.059 149.889V149.849C355.059 149.359 354.925 148.978 354.657 148.706C354.391 148.434 353.989 148.298 353.448 148.298C352.888 148.298 352.449 148.421 352.131 148.666C351.813 148.911 351.589 149.173 351.46 149.452L350.346 149.054C350.545 148.59 350.81 148.229 351.142 147.97C351.476 147.708 351.841 147.526 352.235 147.423C352.633 147.317 353.024 147.264 353.409 147.264C353.654 147.264 353.936 147.294 354.254 147.354C354.575 147.41 354.885 147.528 355.184 147.707C355.485 147.886 355.735 148.156 355.934 148.517C356.133 148.878 356.233 149.362 356.233 149.969V155H355.059V153.966H355C354.92 154.132 354.787 154.309 354.602 154.498C354.416 154.687 354.169 154.848 353.861 154.98C353.553 155.113 353.177 155.179 352.733 155.179ZM352.911 154.125C353.375 154.125 353.767 154.034 354.085 153.852C354.406 153.669 354.648 153.434 354.811 153.146C354.976 152.857 355.059 152.554 355.059 152.236V151.162C355.009 151.222 354.9 151.276 354.731 151.326C354.565 151.372 354.373 151.414 354.154 151.45C353.939 151.483 353.728 151.513 353.523 151.54C353.321 151.563 353.157 151.583 353.031 151.599C352.726 151.639 352.441 151.704 352.176 151.793C351.914 151.879 351.702 152.01 351.539 152.186C351.38 152.358 351.301 152.594 351.301 152.892C351.301 153.3 351.451 153.608 351.753 153.817C352.058 154.022 352.444 154.125 352.911 154.125ZM361.526 158.023C360.96 158.023 360.472 157.95 360.065 157.804C359.657 157.661 359.317 157.473 359.046 157.237C358.777 157.005 358.563 156.757 358.404 156.491L359.339 155.835C359.445 155.974 359.579 156.134 359.742 156.312C359.904 156.495 360.126 156.652 360.408 156.785C360.693 156.921 361.066 156.989 361.526 156.989C362.143 156.989 362.652 156.839 363.053 156.541C363.454 156.243 363.654 155.776 363.654 155.139V153.588H363.555C363.469 153.727 363.346 153.9 363.187 154.105C363.031 154.307 362.806 154.488 362.511 154.647C362.219 154.803 361.825 154.881 361.328 154.881C360.711 154.881 360.158 154.735 359.667 154.443C359.18 154.152 358.794 153.727 358.509 153.17C358.227 152.614 358.086 151.937 358.086 151.142C358.086 150.36 358.224 149.679 358.499 149.099C358.774 148.515 359.157 148.065 359.647 147.746C360.138 147.425 360.704 147.264 361.347 147.264C361.845 147.264 362.239 147.347 362.531 147.513C362.826 147.675 363.051 147.861 363.207 148.07C363.366 148.275 363.489 148.444 363.575 148.577H363.694V147.364H364.828V155.219C364.828 155.875 364.678 156.409 364.38 156.82C364.085 157.234 363.687 157.537 363.187 157.729C362.69 157.925 362.136 158.023 361.526 158.023ZM361.487 153.827C361.957 153.827 362.355 153.719 362.68 153.504C363.005 153.288 363.252 152.978 363.421 152.574C363.59 152.17 363.674 151.686 363.674 151.122C363.674 150.572 363.591 150.086 363.426 149.665C363.26 149.245 363.015 148.915 362.69 148.676C362.365 148.437 361.964 148.318 361.487 148.318C360.989 148.318 360.575 148.444 360.244 148.696C359.916 148.948 359.669 149.286 359.503 149.71C359.341 150.134 359.259 150.605 359.259 151.122C359.259 151.652 359.342 152.121 359.508 152.529C359.677 152.933 359.926 153.252 360.254 153.484C360.585 153.712 360.996 153.827 361.487 153.827ZM373.3 155.179C372.816 155.179 372.377 155.088 371.982 154.906C371.588 154.72 371.275 154.453 371.043 154.105C370.811 153.754 370.695 153.33 370.695 152.832C370.695 152.395 370.781 152.04 370.953 151.768C371.126 151.493 371.356 151.278 371.644 151.122C371.933 150.966 372.251 150.85 372.599 150.774C372.95 150.695 373.303 150.632 373.658 150.585C374.122 150.526 374.498 150.481 374.786 150.451C375.078 150.418 375.29 150.363 375.423 150.287C375.559 150.211 375.627 150.078 375.627 149.889V149.849C375.627 149.359 375.492 148.978 375.224 148.706C374.959 148.434 374.556 148.298 374.016 148.298C373.456 148.298 373.017 148.421 372.698 148.666C372.38 148.911 372.156 149.173 372.027 149.452L370.914 149.054C371.112 148.59 371.378 148.229 371.709 147.97C372.044 147.708 372.408 147.526 372.803 147.423C373.2 147.317 373.592 147.264 373.976 147.264C374.221 147.264 374.503 147.294 374.821 147.354C375.143 147.41 375.453 147.528 375.751 147.707C376.053 147.886 376.303 148.156 376.502 148.517C376.7 148.878 376.8 149.362 376.8 149.969V155H375.627V153.966H375.567C375.487 154.132 375.355 154.309 375.169 154.498C374.984 154.687 374.737 154.848 374.428 154.98C374.12 155.113 373.744 155.179 373.3 155.179ZM373.479 154.125C373.943 154.125 374.334 154.034 374.652 153.852C374.974 153.669 375.216 153.434 375.378 153.146C375.544 152.857 375.627 152.554 375.627 152.236V151.162C375.577 151.222 375.468 151.276 375.299 151.326C375.133 151.372 374.941 151.414 374.722 151.45C374.506 151.483 374.296 151.513 374.09 151.54C373.888 151.563 373.724 151.583 373.598 151.599C373.293 151.639 373.008 151.704 372.743 151.793C372.481 151.879 372.269 152.01 372.107 152.186C371.948 152.358 371.868 152.594 371.868 152.892C371.868 153.3 372.019 153.608 372.321 153.817C372.625 154.022 373.012 154.125 373.479 154.125ZM380.185 150.406V155H379.011V147.364H380.145V148.557H380.244C380.423 148.169 380.695 147.857 381.06 147.622C381.424 147.384 381.895 147.264 382.472 147.264C382.989 147.264 383.441 147.37 383.829 147.582C384.217 147.791 384.518 148.109 384.734 148.537C384.949 148.961 385.057 149.498 385.057 150.148V155H383.884V150.227C383.884 149.627 383.728 149.16 383.416 148.825C383.105 148.487 382.677 148.318 382.134 148.318C381.759 148.318 381.424 148.399 381.129 148.562C380.838 148.724 380.607 148.961 380.438 149.273C380.269 149.584 380.185 149.962 380.185 150.406ZM390.154 155.159C389.518 155.159 388.956 154.998 388.469 154.677C387.982 154.352 387.601 153.895 387.326 153.305C387.05 152.711 386.913 152.01 386.913 151.202C386.913 150.4 387.05 149.704 387.326 149.114C387.601 148.524 387.983 148.068 388.474 147.746C388.965 147.425 389.531 147.264 390.174 147.264C390.671 147.264 391.064 147.347 391.353 147.513C391.644 147.675 391.866 147.861 392.019 148.07C392.175 148.275 392.296 148.444 392.382 148.577H392.481V144.818H393.654V155H392.521V153.827H392.382C392.296 153.966 392.173 154.142 392.014 154.354C391.855 154.562 391.628 154.75 391.333 154.915C391.038 155.078 390.645 155.159 390.154 155.159ZM390.314 154.105C390.784 154.105 391.182 153.982 391.507 153.737C391.832 153.489 392.078 153.146 392.247 152.708C392.416 152.267 392.501 151.759 392.501 151.182C392.501 150.612 392.418 150.113 392.252 149.685C392.087 149.254 391.841 148.92 391.517 148.681C391.192 148.439 390.791 148.318 390.314 148.318C389.816 148.318 389.402 148.446 389.071 148.701C388.742 148.953 388.496 149.296 388.33 149.73C388.167 150.161 388.086 150.645 388.086 151.182C388.086 151.725 388.169 152.219 388.335 152.663C388.504 153.104 388.752 153.455 389.081 153.717C389.412 153.976 389.823 154.105 390.314 154.105ZM402.927 155.159C402.291 155.159 401.729 154.998 401.242 154.677C400.755 154.352 400.373 153.895 400.098 153.305C399.823 152.711 399.686 152.01 399.686 151.202C399.686 150.4 399.823 149.704 400.098 149.114C400.373 148.524 400.756 148.068 401.247 147.746C401.737 147.425 402.304 147.264 402.947 147.264C403.444 147.264 403.837 147.347 404.125 147.513C404.417 147.675 404.639 147.861 404.792 148.07C404.947 148.275 405.068 148.444 405.155 148.577H405.254V144.818H406.427V155H405.294V153.827H405.155C405.068 153.966 404.946 154.142 404.787 154.354C404.628 154.562 404.4 154.75 404.105 154.915C403.811 155.078 403.418 155.159 402.927 155.159ZM403.086 154.105C403.557 154.105 403.955 153.982 404.28 153.737C404.604 153.489 404.851 153.146 405.02 152.708C405.189 152.267 405.274 151.759 405.274 151.182C405.274 150.612 405.191 150.113 405.025 149.685C404.86 149.254 404.614 148.92 404.289 148.681C403.965 148.439 403.564 148.318 403.086 148.318C402.589 148.318 402.175 148.446 401.843 148.701C401.515 148.953 401.268 149.296 401.103 149.73C400.94 150.161 400.859 150.645 400.859 151.182C400.859 151.725 400.942 152.219 401.108 152.663C401.277 153.104 401.525 153.455 401.853 153.717C402.185 153.976 402.596 154.105 403.086 154.105ZM408.809 155V147.364H409.943V148.517H410.022C410.161 148.139 410.413 147.833 410.778 147.597C411.142 147.362 411.553 147.244 412.011 147.244C412.097 147.244 412.205 147.246 412.334 147.249C412.463 147.253 412.561 147.258 412.627 147.264V148.457C412.587 148.447 412.496 148.433 412.354 148.413C412.215 148.389 412.067 148.378 411.911 148.378C411.54 148.378 411.209 148.456 410.917 148.612C410.629 148.764 410.4 148.976 410.231 149.248C410.065 149.516 409.982 149.823 409.982 150.168V155H408.809ZM416.958 155.159C416.268 155.159 415.664 154.995 415.143 154.667C414.626 154.339 414.222 153.88 413.93 153.29C413.642 152.7 413.498 152.01 413.498 151.222C413.498 150.426 413.642 149.732 413.93 149.138C414.222 148.545 414.626 148.085 415.143 147.756C415.664 147.428 416.268 147.264 416.958 147.264C417.647 147.264 418.25 147.428 418.768 147.756C419.288 148.085 419.692 148.545 419.981 149.138C420.272 149.732 420.418 150.426 420.418 151.222C420.418 152.01 420.272 152.7 419.981 153.29C419.692 153.88 419.288 154.339 418.768 154.667C418.25 154.995 417.647 155.159 416.958 155.159ZM416.958 154.105C417.482 154.105 417.912 153.971 418.25 153.702C418.589 153.434 418.839 153.081 419.001 152.643C419.164 152.206 419.245 151.732 419.245 151.222C419.245 150.711 419.164 150.236 419.001 149.795C418.839 149.354 418.589 148.998 418.25 148.726C417.912 148.454 417.482 148.318 416.958 148.318C416.434 148.318 416.003 148.454 415.665 148.726C415.327 148.998 415.077 149.354 414.915 149.795C414.752 150.236 414.671 150.711 414.671 151.222C414.671 151.732 414.752 152.206 414.915 152.643C415.077 153.081 415.327 153.434 415.665 153.702C416.003 153.971 416.434 154.105 416.958 154.105ZM422.279 157.864V147.364H423.413V148.577H423.552C423.638 148.444 423.757 148.275 423.91 148.07C424.066 147.861 424.288 147.675 424.576 147.513C424.868 147.347 425.262 147.264 425.759 147.264C426.402 147.264 426.969 147.425 427.459 147.746C427.95 148.068 428.333 148.524 428.608 149.114C428.883 149.704 429.021 150.4 429.021 151.202C429.021 152.01 428.883 152.711 428.608 153.305C428.333 153.895 427.952 154.352 427.464 154.677C426.977 154.998 426.415 155.159 425.779 155.159C425.289 155.159 424.896 155.078 424.601 154.915C424.306 154.75 424.079 154.562 423.92 154.354C423.761 154.142 423.638 153.966 423.552 153.827H423.452V157.864H422.279ZM423.433 151.182C423.433 151.759 423.517 152.267 423.686 152.708C423.855 153.146 424.102 153.489 424.427 153.737C424.752 153.982 425.149 154.105 425.62 154.105C426.111 154.105 426.52 153.976 426.848 153.717C427.179 153.455 427.428 153.104 427.594 152.663C427.763 152.219 427.847 151.725 427.847 151.182C427.847 150.645 427.764 150.161 427.599 149.73C427.436 149.296 427.189 148.953 426.858 148.701C426.53 148.446 426.117 148.318 425.62 148.318C425.143 148.318 424.742 148.439 424.417 148.681C424.092 148.92 423.847 149.254 423.681 149.685C423.515 150.113 423.433 150.612 423.433 151.182ZM434.888 155V147.364H436.061V155H434.888ZM435.484 146.091C435.256 146.091 435.059 146.013 434.893 145.857C434.73 145.701 434.649 145.514 434.649 145.295C434.649 145.077 434.73 144.889 434.893 144.734C435.059 144.578 435.256 144.5 435.484 144.5C435.713 144.5 435.909 144.578 436.071 144.734C436.237 144.889 436.32 145.077 436.32 145.295C436.32 145.514 436.237 145.701 436.071 145.857C435.909 146.013 435.713 146.091 435.484 146.091ZM438.28 155V147.364H439.414V148.557H439.513C439.672 148.149 439.929 147.833 440.284 147.607C440.638 147.379 441.064 147.264 441.561 147.264C442.065 147.264 442.484 147.379 442.819 147.607C443.157 147.833 443.421 148.149 443.61 148.557H443.689C443.885 148.162 444.178 147.849 444.569 147.617C444.96 147.382 445.429 147.264 445.976 147.264C446.659 147.264 447.217 147.478 447.652 147.906C448.086 148.33 448.303 148.991 448.303 149.889V155H447.13V149.889C447.13 149.326 446.975 148.923 446.667 148.681C446.359 148.439 445.996 148.318 445.578 148.318C445.041 148.318 444.626 148.481 444.331 148.805C444.036 149.127 443.888 149.535 443.888 150.028V155H442.695V149.77C442.695 149.336 442.554 148.986 442.272 148.721C441.991 148.452 441.628 148.318 441.184 148.318C440.879 148.318 440.594 148.399 440.328 148.562C440.067 148.724 439.854 148.95 439.692 149.238C439.533 149.523 439.453 149.853 439.453 150.227V155H438.28ZM452.765 155.179C452.281 155.179 451.842 155.088 451.448 154.906C451.053 154.72 450.74 154.453 450.508 154.105C450.276 153.754 450.16 153.33 450.16 152.832C450.16 152.395 450.246 152.04 450.419 151.768C450.591 151.493 450.821 151.278 451.11 151.122C451.398 150.966 451.716 150.85 452.064 150.774C452.416 150.695 452.769 150.632 453.123 150.585C453.587 150.526 453.963 150.481 454.252 150.451C454.543 150.418 454.756 150.363 454.888 150.287C455.024 150.211 455.092 150.078 455.092 149.889V149.849C455.092 149.359 454.958 148.978 454.689 148.706C454.424 148.434 454.021 148.298 453.481 148.298C452.921 148.298 452.482 148.421 452.164 148.666C451.845 148.911 451.622 149.173 451.493 149.452L450.379 149.054C450.578 148.59 450.843 148.229 451.174 147.97C451.509 147.708 451.874 147.526 452.268 147.423C452.666 147.317 453.057 147.264 453.441 147.264C453.687 147.264 453.968 147.294 454.287 147.354C454.608 147.41 454.918 147.528 455.216 147.707C455.518 147.886 455.768 148.156 455.967 148.517C456.166 148.878 456.265 149.362 456.265 149.969V155H455.092V153.966H455.032C454.953 154.132 454.82 154.309 454.635 154.498C454.449 154.687 454.202 154.848 453.894 154.98C453.586 155.113 453.209 155.179 452.765 155.179ZM452.944 154.125C453.408 154.125 453.799 154.034 454.118 153.852C454.439 153.669 454.681 153.434 454.843 153.146C455.009 152.857 455.092 152.554 455.092 152.236V151.162C455.042 151.222 454.933 151.276 454.764 151.326C454.598 151.372 454.406 151.414 454.187 151.45C453.972 151.483 453.761 151.513 453.556 151.54C453.354 151.563 453.189 151.583 453.064 151.599C452.759 151.639 452.474 151.704 452.208 151.793C451.947 151.879 451.734 152.01 451.572 152.186C451.413 152.358 451.333 152.594 451.333 152.892C451.333 153.3 451.484 153.608 451.786 153.817C452.091 154.022 452.477 154.125 452.944 154.125ZM461.559 158.023C460.992 158.023 460.505 157.95 460.097 157.804C459.69 157.661 459.35 157.473 459.078 157.237C458.81 157.005 458.596 156.757 458.437 156.491L459.372 155.835C459.478 155.974 459.612 156.134 459.774 156.312C459.937 156.495 460.159 156.652 460.441 156.785C460.726 156.921 461.098 156.989 461.559 156.989C462.176 156.989 462.684 156.839 463.085 156.541C463.486 156.243 463.687 155.776 463.687 155.139V153.588H463.588C463.501 153.727 463.379 153.9 463.22 154.105C463.064 154.307 462.838 154.488 462.544 154.647C462.252 154.803 461.857 154.881 461.36 154.881C460.744 154.881 460.19 154.735 459.7 154.443C459.213 154.152 458.826 153.727 458.541 153.17C458.26 152.614 458.119 151.937 458.119 151.142C458.119 150.36 458.256 149.679 458.531 149.099C458.807 148.515 459.189 148.065 459.68 147.746C460.17 147.425 460.737 147.264 461.38 147.264C461.877 147.264 462.272 147.347 462.563 147.513C462.858 147.675 463.084 147.861 463.24 148.07C463.399 148.275 463.521 148.444 463.607 148.577H463.727V147.364H464.86V155.219C464.86 155.875 464.711 156.409 464.413 156.82C464.118 157.234 463.72 157.537 463.22 157.729C462.722 157.925 462.169 158.023 461.559 158.023ZM461.519 153.827C461.99 153.827 462.388 153.719 462.713 153.504C463.037 153.288 463.284 152.978 463.453 152.574C463.622 152.17 463.707 151.686 463.707 151.122C463.707 150.572 463.624 150.086 463.458 149.665C463.293 149.245 463.047 148.915 462.722 148.676C462.398 148.437 461.997 148.318 461.519 148.318C461.022 148.318 460.608 148.444 460.276 148.696C459.948 148.948 459.701 149.286 459.536 149.71C459.373 150.134 459.292 150.605 459.292 151.122C459.292 151.652 459.375 152.121 459.541 152.529C459.71 152.933 459.958 153.252 460.286 153.484C460.618 153.712 461.029 153.827 461.519 153.827ZM470.28 155.159C469.544 155.159 468.909 154.997 468.376 154.672C467.845 154.344 467.436 153.886 467.148 153.3C466.863 152.71 466.72 152.024 466.72 151.241C466.72 150.459 466.863 149.77 467.148 149.173C467.436 148.573 467.837 148.106 468.351 147.771C468.868 147.433 469.471 147.264 470.16 147.264C470.558 147.264 470.951 147.33 471.339 147.463C471.726 147.596 472.079 147.811 472.398 148.109C472.716 148.404 472.969 148.795 473.158 149.283C473.347 149.77 473.442 150.37 473.442 151.082V151.58H467.555V150.565H472.248C472.248 150.134 472.162 149.75 471.99 149.412C471.821 149.074 471.579 148.807 471.264 148.612C470.953 148.416 470.585 148.318 470.16 148.318C469.693 148.318 469.289 148.434 468.947 148.666C468.609 148.895 468.349 149.193 468.167 149.561C467.984 149.929 467.893 150.323 467.893 150.744V151.42C467.893 151.997 467.993 152.486 468.192 152.887C468.394 153.285 468.674 153.588 469.032 153.797C469.39 154.002 469.806 154.105 470.28 154.105C470.588 154.105 470.866 154.062 471.115 153.976C471.367 153.886 471.584 153.754 471.766 153.578C471.949 153.399 472.089 153.177 472.189 152.912L473.322 153.23C473.203 153.615 473.002 153.953 472.721 154.244C472.439 154.533 472.091 154.758 471.677 154.92C471.262 155.08 470.797 155.159 470.28 155.159ZM480.477 150.406V155H479.304V144.818H480.477V148.557H480.577C480.756 148.162 481.024 147.849 481.382 147.617C481.743 147.382 482.224 147.264 482.824 147.264C483.344 147.264 483.8 147.369 484.191 147.577C484.582 147.783 484.885 148.099 485.101 148.527C485.32 148.951 485.429 149.491 485.429 150.148V155H484.256V150.227C484.256 149.621 484.098 149.152 483.783 148.82C483.472 148.486 483.039 148.318 482.486 148.318C482.101 148.318 481.757 148.399 481.452 148.562C481.15 148.724 480.911 148.961 480.736 149.273C480.563 149.584 480.477 149.962 480.477 150.406ZM490.847 155.159C490.111 155.159 489.477 154.997 488.943 154.672C488.413 154.344 488.003 153.886 487.715 153.3C487.43 152.71 487.287 152.024 487.287 151.241C487.287 150.459 487.43 149.77 487.715 149.173C488.003 148.573 488.404 148.106 488.918 147.771C489.435 147.433 490.038 147.264 490.728 147.264C491.126 147.264 491.518 147.33 491.906 147.463C492.294 147.596 492.647 147.811 492.965 148.109C493.283 148.404 493.537 148.795 493.726 149.283C493.915 149.77 494.009 150.37 494.009 151.082V151.58H488.123V150.565H492.816C492.816 150.134 492.73 149.75 492.557 149.412C492.388 149.074 492.146 148.807 491.832 148.612C491.52 148.416 491.152 148.318 490.728 148.318C490.26 148.318 489.856 148.434 489.515 148.666C489.177 148.895 488.916 149.193 488.734 149.561C488.552 149.929 488.461 150.323 488.461 150.744V151.42C488.461 151.997 488.56 152.486 488.759 152.887C488.961 153.285 489.241 153.588 489.599 153.797C489.957 154.002 490.373 154.105 490.847 154.105C491.155 154.105 491.434 154.062 491.682 153.976C491.934 153.886 492.151 153.754 492.334 153.578C492.516 153.399 492.657 153.177 492.756 152.912L493.89 153.23C493.77 153.615 493.57 153.953 493.288 154.244C493.006 154.533 492.658 154.758 492.244 154.92C491.83 155.08 491.364 155.159 490.847 155.159ZM495.864 155V147.364H496.997V148.517H497.077C497.216 148.139 497.468 147.833 497.833 147.597C498.197 147.362 498.608 147.244 499.066 147.244C499.152 147.244 499.259 147.246 499.389 147.249C499.518 147.253 499.616 147.258 499.682 147.264V148.457C499.642 148.447 499.551 148.433 499.409 148.413C499.269 148.389 499.122 148.378 498.966 148.378C498.595 148.378 498.263 148.456 497.972 148.612C497.683 148.764 497.455 148.976 497.286 149.248C497.12 149.516 497.037 149.823 497.037 150.168V155H495.864ZM504.112 155.159C503.376 155.159 502.742 154.997 502.208 154.672C501.678 154.344 501.268 153.886 500.98 153.3C500.695 152.71 500.552 152.024 500.552 151.241C500.552 150.459 500.695 149.77 500.98 149.173C501.268 148.573 501.669 148.106 502.183 147.771C502.7 147.433 503.303 147.264 503.993 147.264C504.391 147.264 504.783 147.33 505.171 147.463C505.559 147.596 505.912 147.811 506.23 148.109C506.548 148.404 506.802 148.795 506.991 149.283C507.18 149.77 507.274 150.37 507.274 151.082V151.58H501.388V150.565H506.081C506.081 150.134 505.995 149.75 505.822 149.412C505.653 149.074 505.411 148.807 505.097 148.612C504.785 148.416 504.417 148.318 503.993 148.318C503.525 148.318 503.121 148.434 502.78 148.666C502.442 148.895 502.181 149.193 501.999 149.561C501.817 149.929 501.726 150.323 501.726 150.744V151.42C501.726 151.997 501.825 152.486 502.024 152.887C502.226 153.285 502.506 153.588 502.864 153.797C503.222 154.002 503.638 154.105 504.112 154.105C504.42 154.105 504.699 154.062 504.947 153.976C505.199 153.886 505.416 153.754 505.599 153.578C505.781 153.399 505.922 153.177 506.021 152.912L507.155 153.23C507.035 153.615 506.835 153.953 506.553 154.244C506.271 154.533 505.923 154.758 505.509 154.92C505.095 155.08 504.629 155.159 504.112 155.159ZM510.879 153.608L510.799 154.145C510.743 154.523 510.657 154.927 510.541 155.358C510.428 155.789 510.31 156.195 510.188 156.576C510.065 156.957 509.964 157.26 509.885 157.486H508.99C509.033 157.274 509.089 156.994 509.159 156.646C509.228 156.298 509.298 155.908 509.367 155.477C509.44 155.05 509.5 154.612 509.546 154.165L509.606 153.608H510.879ZM520.232 155.159C519.543 155.159 518.938 154.995 518.418 154.667C517.901 154.339 517.496 153.88 517.205 153.29C516.916 152.7 516.772 152.01 516.772 151.222C516.772 150.426 516.916 149.732 517.205 149.138C517.496 148.545 517.901 148.085 518.418 147.756C518.938 147.428 519.543 147.264 520.232 147.264C520.922 147.264 521.525 147.428 522.042 147.756C522.562 148.085 522.967 148.545 523.255 149.138C523.547 149.732 523.693 150.426 523.693 151.222C523.693 152.01 523.547 152.7 523.255 153.29C522.967 153.88 522.562 154.339 522.042 154.667C521.525 154.995 520.922 155.159 520.232 155.159ZM520.232 154.105C520.756 154.105 521.187 153.971 521.525 153.702C521.863 153.434 522.113 153.081 522.276 152.643C522.438 152.206 522.519 151.732 522.519 151.222C522.519 150.711 522.438 150.236 522.276 149.795C522.113 149.354 521.863 148.998 521.525 148.726C521.187 148.454 520.756 148.318 520.232 148.318C519.709 148.318 519.278 148.454 518.94 148.726C518.602 148.998 518.352 149.354 518.189 149.795C518.027 150.236 517.946 150.711 517.946 151.222C517.946 151.732 518.027 152.206 518.189 152.643C518.352 153.081 518.602 153.434 518.94 153.702C519.278 153.971 519.709 154.105 520.232 154.105ZM525.554 155V147.364H526.687V148.517H526.767C526.906 148.139 527.158 147.833 527.522 147.597C527.887 147.362 528.298 147.244 528.755 147.244C528.842 147.244 528.949 147.246 529.079 147.249C529.208 147.253 529.306 147.258 529.372 147.264V148.457C529.332 148.447 529.241 148.433 529.098 148.413C528.959 148.389 528.812 148.378 528.656 148.378C528.285 148.378 527.953 148.456 527.662 148.612C527.373 148.764 527.145 148.976 526.976 149.248C526.81 149.516 526.727 149.823 526.727 150.168V155H525.554ZM537.942 155.159C537.227 155.159 536.61 154.99 536.093 154.652C535.576 154.314 535.178 153.848 534.9 153.255C534.621 152.662 534.482 151.984 534.482 151.222C534.482 150.446 534.625 149.762 534.91 149.168C535.198 148.572 535.599 148.106 536.113 147.771C536.63 147.433 537.233 147.264 537.923 147.264C538.46 147.264 538.943 147.364 539.374 147.562C539.805 147.761 540.158 148.04 540.433 148.398C540.708 148.756 540.879 149.173 540.945 149.651H539.772C539.683 149.303 539.484 148.994 539.175 148.726C538.87 148.454 538.46 148.318 537.942 148.318C537.485 148.318 537.084 148.437 536.739 148.676C536.398 148.911 536.131 149.245 535.939 149.675C535.75 150.103 535.656 150.605 535.656 151.182C535.656 151.772 535.748 152.286 535.934 152.723C536.123 153.161 536.388 153.5 536.729 153.742C537.074 153.984 537.478 154.105 537.942 154.105C538.247 154.105 538.524 154.052 538.773 153.946C539.021 153.84 539.232 153.688 539.404 153.489C539.576 153.29 539.699 153.051 539.772 152.773H540.945C540.879 153.223 540.715 153.629 540.453 153.991C540.195 154.349 539.852 154.634 539.424 154.846C539 155.055 538.506 155.159 537.942 155.159ZM543.904 144.818V155H542.731V144.818H543.904ZM546.123 155V147.364H547.296V155H546.123ZM546.719 146.091C546.491 146.091 546.293 146.013 546.128 145.857C545.965 145.701 545.884 145.514 545.884 145.295C545.884 145.077 545.965 144.889 546.128 144.734C546.293 144.578 546.491 144.5 546.719 144.5C546.948 144.5 547.144 144.578 547.306 144.734C547.472 144.889 547.555 145.077 547.555 145.295C547.555 145.514 547.472 145.701 547.306 145.857C547.144 146.013 546.948 146.091 546.719 146.091ZM552.617 155.159C551.901 155.159 551.285 154.99 550.768 154.652C550.251 154.314 549.853 153.848 549.575 153.255C549.296 152.662 549.157 151.984 549.157 151.222C549.157 150.446 549.3 149.762 549.585 149.168C549.873 148.572 550.274 148.106 550.788 147.771C551.305 147.433 551.908 147.264 552.597 147.264C553.134 147.264 553.618 147.364 554.049 147.562C554.48 147.761 554.833 148.04 555.108 148.398C555.383 148.756 555.554 149.173 555.62 149.651H554.447C554.357 149.303 554.159 148.994 553.85 148.726C553.545 148.454 553.134 148.318 552.617 148.318C552.16 148.318 551.759 148.437 551.414 148.676C551.073 148.911 550.806 149.245 550.614 149.675C550.425 150.103 550.33 150.605 550.33 151.182C550.33 151.772 550.423 152.286 550.609 152.723C550.798 153.161 551.063 153.5 551.404 153.742C551.749 153.984 552.153 154.105 552.617 154.105C552.922 154.105 553.199 154.052 553.448 153.946C553.696 153.84 553.907 153.688 554.079 153.489C554.251 153.29 554.374 153.051 554.447 152.773H555.62C555.554 153.223 555.39 153.629 555.128 153.991C554.869 154.349 554.526 154.634 554.099 154.846C553.675 155.055 553.181 155.159 552.617 155.159ZM558.499 152.216L558.479 150.764H558.718L562.059 147.364H563.51L559.951 150.963H559.851L558.499 152.216ZM557.405 155V144.818H558.579V155H557.405ZM562.258 155L559.275 151.222L560.11 150.406L563.749 155H562.258ZM571.345 155.179C570.861 155.179 570.422 155.088 570.028 154.906C569.633 154.72 569.32 154.453 569.088 154.105C568.856 153.754 568.74 153.33 568.74 152.832C568.74 152.395 568.826 152.04 568.999 151.768C569.171 151.493 569.401 151.278 569.69 151.122C569.978 150.966 570.296 150.85 570.644 150.774C570.996 150.695 571.349 150.632 571.703 150.585C572.167 150.526 572.543 150.481 572.832 150.451C573.123 150.418 573.336 150.363 573.468 150.287C573.604 150.211 573.672 150.078 573.672 149.889V149.849C573.672 149.359 573.538 148.978 573.269 148.706C573.004 148.434 572.601 148.298 572.061 148.298C571.501 148.298 571.062 148.421 570.744 148.666C570.425 148.911 570.202 149.173 570.073 149.452L568.959 149.054C569.158 148.59 569.423 148.229 569.754 147.97C570.089 147.708 570.454 147.526 570.848 147.423C571.246 147.317 571.637 147.264 572.021 147.264C572.267 147.264 572.548 147.294 572.867 147.354C573.188 147.41 573.498 147.528 573.796 147.707C574.098 147.886 574.348 148.156 574.547 148.517C574.746 148.878 574.845 149.362 574.845 149.969V155H573.672V153.966H573.612C573.533 154.132 573.4 154.309 573.215 154.498C573.029 154.687 572.782 154.848 572.474 154.98C572.166 155.113 571.789 155.179 571.345 155.179ZM571.524 154.125C571.988 154.125 572.379 154.034 572.698 153.852C573.019 153.669 573.261 153.434 573.423 153.146C573.589 152.857 573.672 152.554 573.672 152.236V151.162C573.622 151.222 573.513 151.276 573.344 151.326C573.178 151.372 572.986 151.414 572.767 151.45C572.552 151.483 572.341 151.513 572.136 151.54C571.934 151.563 571.769 151.583 571.644 151.599C571.339 151.639 571.054 151.704 570.788 151.793C570.527 151.879 570.314 152.01 570.152 152.186C569.993 152.358 569.913 152.594 569.913 152.892C569.913 153.3 570.064 153.608 570.366 153.817C570.671 154.022 571.057 154.125 571.524 154.125ZM579.94 155.159C579.304 155.159 578.742 154.998 578.255 154.677C577.768 154.352 577.387 153.895 577.111 153.305C576.836 152.711 576.699 152.01 576.699 151.202C576.699 150.4 576.836 149.704 577.111 149.114C577.387 148.524 577.769 148.068 578.26 147.746C578.75 147.425 579.317 147.264 579.96 147.264C580.457 147.264 580.85 147.347 581.138 147.513C581.43 147.675 581.652 147.861 581.805 148.07C581.96 148.275 582.081 148.444 582.168 148.577H582.267V144.818H583.44V155H582.307V153.827H582.168C582.081 153.966 581.959 154.142 581.8 154.354C581.641 154.562 581.414 154.75 581.119 154.915C580.824 155.078 580.431 155.159 579.94 155.159ZM580.099 154.105C580.57 154.105 580.968 153.982 581.293 153.737C581.617 153.489 581.864 153.146 582.033 152.708C582.202 152.267 582.287 151.759 582.287 151.182C582.287 150.612 582.204 150.113 582.038 149.685C581.873 149.254 581.627 148.92 581.302 148.681C580.978 148.439 580.577 148.318 580.099 148.318C579.602 148.318 579.188 148.446 578.856 148.701C578.528 148.953 578.281 149.296 578.116 149.73C577.953 150.161 577.872 150.645 577.872 151.182C577.872 151.725 577.955 152.219 578.121 152.663C578.29 153.104 578.538 153.455 578.866 153.717C579.198 153.976 579.609 154.105 580.099 154.105ZM588.706 155.159C588.069 155.159 587.507 154.998 587.02 154.677C586.533 154.352 586.152 153.895 585.877 153.305C585.602 152.711 585.464 152.01 585.464 151.202C585.464 150.4 585.602 149.704 585.877 149.114C586.152 148.524 586.535 148.068 587.025 147.746C587.516 147.425 588.082 147.264 588.725 147.264C589.223 147.264 589.615 147.347 589.904 147.513C590.195 147.675 590.417 147.861 590.57 148.07C590.726 148.275 590.847 148.444 590.933 148.577H591.032V144.818H592.206V155H591.072V153.827H590.933C590.847 153.966 590.724 154.142 590.565 154.354C590.406 154.562 590.179 154.75 589.884 154.915C589.589 155.078 589.196 155.159 588.706 155.159ZM588.865 154.105C589.335 154.105 589.733 153.982 590.058 153.737C590.383 153.489 590.63 153.146 590.799 152.708C590.968 152.267 591.052 151.759 591.052 151.182C591.052 150.612 590.969 150.113 590.804 149.685C590.638 149.254 590.393 148.92 590.068 148.681C589.743 148.439 589.342 148.318 588.865 148.318C588.368 148.318 587.953 148.446 587.622 148.701C587.294 148.953 587.047 149.296 586.881 149.73C586.719 150.161 586.637 150.645 586.637 151.182C586.637 151.725 586.72 152.219 586.886 152.663C587.055 153.104 587.304 153.455 587.632 153.717C587.963 153.976 588.374 154.105 588.865 154.105ZM598.595 155V147.364H599.768V155H598.595ZM599.191 146.091C598.963 146.091 598.766 146.013 598.6 145.857C598.437 145.701 598.356 145.514 598.356 145.295C598.356 145.077 598.437 144.889 598.6 144.734C598.766 144.578 598.963 144.5 599.191 144.5C599.42 144.5 599.616 144.578 599.778 144.734C599.944 144.889 600.027 145.077 600.027 145.295C600.027 145.514 599.944 145.701 599.778 145.857C599.616 146.013 599.42 146.091 599.191 146.091ZM601.987 155V147.364H603.121V148.557H603.22C603.379 148.149 603.636 147.833 603.991 147.607C604.345 147.379 604.771 147.264 605.268 147.264C605.772 147.264 606.191 147.379 606.526 147.607C606.864 147.833 607.128 148.149 607.317 148.557H607.396C607.592 148.162 607.885 147.849 608.276 147.617C608.667 147.382 609.136 147.264 609.683 147.264C610.366 147.264 610.924 147.478 611.359 147.906C611.793 148.33 612.01 148.991 612.01 149.889V155H610.837V149.889C610.837 149.326 610.682 148.923 610.374 148.681C610.066 148.439 609.703 148.318 609.285 148.318C608.748 148.318 608.333 148.481 608.038 148.805C607.743 149.127 607.595 149.535 607.595 150.028V155H606.402V149.77C606.402 149.336 606.261 148.986 605.979 148.721C605.698 148.452 605.335 148.318 604.891 148.318C604.586 148.318 604.301 148.399 604.035 148.562C603.774 148.724 603.561 148.95 603.399 149.238C603.24 149.523 603.16 149.853 603.16 150.227V155H601.987ZM616.472 155.179C615.988 155.179 615.549 155.088 615.155 154.906C614.76 154.72 614.447 154.453 614.215 154.105C613.983 153.754 613.867 153.33 613.867 152.832C613.867 152.395 613.953 152.04 614.126 151.768C614.298 151.493 614.528 151.278 614.817 151.122C615.105 150.966 615.423 150.85 615.771 150.774C616.123 150.695 616.476 150.632 616.83 150.585C617.294 150.526 617.67 150.481 617.959 150.451C618.25 150.418 618.463 150.363 618.595 150.287C618.731 150.211 618.799 150.078 618.799 149.889V149.849C618.799 149.359 618.665 148.978 618.396 148.706C618.131 148.434 617.728 148.298 617.188 148.298C616.628 148.298 616.189 148.421 615.871 148.666C615.553 148.911 615.329 149.173 615.2 149.452L614.086 149.054C614.285 148.59 614.55 148.229 614.881 147.97C615.216 147.708 615.581 147.526 615.975 147.423C616.373 147.317 616.764 147.264 617.148 147.264C617.394 147.264 617.675 147.294 617.994 147.354C618.315 147.41 618.625 147.528 618.923 147.707C619.225 147.886 619.475 148.156 619.674 148.517C619.873 148.878 619.972 149.362 619.972 149.969V155H618.799V153.966H618.739C618.66 154.132 618.527 154.309 618.342 154.498C618.156 154.687 617.909 154.848 617.601 154.98C617.293 155.113 616.916 155.179 616.472 155.179ZM616.651 154.125C617.115 154.125 617.506 154.034 617.825 153.852C618.146 153.669 618.388 153.434 618.55 153.146C618.716 152.857 618.799 152.554 618.799 152.236V151.162C618.749 151.222 618.64 151.276 618.471 151.326C618.305 151.372 618.113 151.414 617.894 151.45C617.679 151.483 617.468 151.513 617.263 151.54C617.061 151.563 616.897 151.583 616.771 151.599C616.466 151.639 616.181 151.704 615.915 151.793C615.654 151.879 615.441 152.01 615.279 152.186C615.12 152.358 615.04 152.594 615.04 152.892C615.04 153.3 615.191 153.608 615.493 153.817C615.798 154.022 616.184 154.125 616.651 154.125ZM625.266 158.023C624.699 158.023 624.212 157.95 623.805 157.804C623.397 157.661 623.057 157.473 622.785 157.237C622.517 157.005 622.303 156.757 622.144 156.491L623.079 155.835C623.185 155.974 623.319 156.134 623.481 156.312C623.644 156.495 623.866 156.652 624.148 156.785C624.433 156.921 624.805 156.989 625.266 156.989C625.883 156.989 626.391 156.839 626.792 156.541C627.193 156.243 627.394 155.776 627.394 155.139V153.588H627.295C627.208 153.727 627.086 153.9 626.927 154.105C626.771 154.307 626.546 154.488 626.251 154.647C625.959 154.803 625.564 154.881 625.067 154.881C624.451 154.881 623.897 154.735 623.407 154.443C622.92 154.152 622.533 153.727 622.248 153.17C621.967 152.614 621.826 151.937 621.826 151.142C621.826 150.36 621.963 149.679 622.238 149.099C622.514 148.515 622.896 148.065 623.387 147.746C623.877 147.425 624.444 147.264 625.087 147.264C625.584 147.264 625.979 147.347 626.27 147.513C626.565 147.675 626.791 147.861 626.947 148.07C627.106 148.275 627.228 148.444 627.314 148.577H627.434V147.364H628.567V155.219C628.567 155.875 628.418 156.409 628.12 156.82C627.825 157.234 627.427 157.537 626.927 157.729C626.43 157.925 625.876 158.023 625.266 158.023ZM625.226 153.827C625.697 153.827 626.095 153.719 626.42 153.504C626.744 153.288 626.991 152.978 627.16 152.574C627.329 152.17 627.414 151.686 627.414 151.122C627.414 150.572 627.331 150.086 627.165 149.665C627 149.245 626.754 148.915 626.43 148.676C626.105 148.437 625.704 148.318 625.226 148.318C624.729 148.318 624.315 148.444 623.984 148.696C623.655 148.948 623.408 149.286 623.243 149.71C623.08 150.134 622.999 150.605 622.999 151.122C622.999 151.652 623.082 152.121 623.248 152.529C623.417 152.933 623.665 153.252 623.993 153.484C624.325 153.712 624.736 153.827 625.226 153.827ZM633.987 155.159C633.251 155.159 632.616 154.997 632.083 154.672C631.552 154.344 631.143 153.886 630.855 153.3C630.57 152.71 630.427 152.024 630.427 151.241C630.427 150.459 630.57 149.77 630.855 149.173C631.143 148.573 631.544 148.106 632.058 147.771C632.575 147.433 633.178 147.264 633.867 147.264C634.265 147.264 634.658 147.33 635.046 147.463C635.433 147.596 635.786 147.811 636.105 148.109C636.423 148.404 636.676 148.795 636.865 149.283C637.054 149.77 637.149 150.37 637.149 151.082V151.58H631.262V150.565H635.956C635.956 150.134 635.869 149.75 635.697 149.412C635.528 149.074 635.286 148.807 634.971 148.612C634.66 148.416 634.292 148.318 633.867 148.318C633.4 148.318 632.996 148.434 632.654 148.666C632.316 148.895 632.056 149.193 631.874 149.561C631.692 149.929 631.6 150.323 631.6 150.744V151.42C631.6 151.997 631.7 152.486 631.899 152.887C632.101 153.285 632.381 153.588 632.739 153.797C633.097 154.002 633.513 154.105 633.987 154.105C634.295 154.105 634.573 154.062 634.822 153.976C635.074 153.886 635.291 153.754 635.473 153.578C635.656 153.399 635.796 153.177 635.896 152.912L637.029 153.23C636.91 153.615 636.71 153.953 636.428 154.244C636.146 154.533 635.798 154.758 635.384 154.92C634.969 155.08 634.504 155.159 633.987 155.159Z" fill="#858D9D"/>
<rect x="0.5" y="0.5" width="971" height="183" rx="7.5" stroke="#E0E2E7" stroke-dasharray="10 10"/>
</svg>
