<svg width="18" height="12" viewBox="0 0 18 12" fill="none" xmlns="http://www.w3.org/2000/svg">
<path fill-rule="evenodd" clip-rule="evenodd" d="M8.99996 0.166626C14.1083 0.166626 16.5256 3.5916 17.3765 5.19278C17.6475 5.70262 17.6475 6.2973 17.3765 6.80714C16.5256 8.40832 14.1083 11.8333 8.99996 11.8333C3.89164 11.8333 1.47436 8.40832 0.623389 6.80714C0.352425 6.2973 0.352425 5.70262 0.62339 5.19277C1.47436 3.59159 3.89164 0.166626 8.99996 0.166626ZM4.69692 3.0647C3.31336 3.98141 2.50548 5.20281 2.09512 5.97494C2.09054 5.98357 2.08865 5.98955 2.08783 5.99283C2.08699 5.99617 2.08683 5.99996 2.08683 5.99996C2.08683 5.99996 2.08699 6.00375 2.08783 6.00709C2.08865 6.01037 2.09054 6.01635 2.09512 6.02497C2.50548 6.7971 3.31336 8.01851 4.69692 8.93521C4.1257 8.09943 3.79163 7.08871 3.79163 5.99996C3.79163 4.91121 4.1257 3.90049 4.69692 3.0647ZM13.303 8.9352C14.6866 8.0185 15.4944 6.7971 15.9048 6.02497C15.9094 6.01635 15.9113 6.01037 15.9121 6.00709C15.9126 6.00492 15.913 6.00187 15.913 6.00187L15.9131 5.99996L15.9128 5.99629L15.9121 5.99283C15.9113 5.98955 15.9094 5.98357 15.9048 5.97494C15.4944 5.20282 14.6866 3.98142 13.303 3.06471C13.8742 3.9005 14.2083 4.91122 14.2083 5.99996C14.2083 7.0887 13.8742 8.09942 13.303 8.9352ZM5.4583 5.99996C5.4583 4.04395 7.04396 2.45829 8.99997 2.45829C10.956 2.45829 12.5416 4.04395 12.5416 5.99996C12.5416 7.95597 10.956 9.54163 8.99997 9.54163C7.04396 9.54163 5.4583 7.95597 5.4583 5.99996Z" fill="#667085"/>
</svg>
