<svg width="24" height="24" viewBox="0 0 24 24" fill="none" xmlns="http://www.w3.org/2000/svg">
<path fill-rule="evenodd" clip-rule="evenodd" d="M14.7849 16.1988C11.6465 18.6414 7.10678 18.4202 4.22205 15.5355C1.09786 12.4113 1.09786 7.346 4.22205 4.22181C7.34625 1.09761 12.4116 1.09761 15.5358 4.22181C18.4205 7.10653 18.6416 11.6462 16.1991 14.7846L20.4855 19.0711C20.8761 19.4616 20.8761 20.0948 20.4855 20.4853C20.095 20.8758 19.4619 20.8758 19.0713 20.4853L14.7849 16.1988ZM5.63627 14.1213C7.97941 16.4644 11.7784 16.4644 14.1215 14.1213C16.4647 11.7782 16.4647 7.97917 14.1215 5.63602C11.7784 3.29288 7.97941 3.29288 5.63627 5.63602C3.29312 7.97917 3.29312 11.7782 5.63627 14.1213Z" fill="#667085"/>
</svg>
