<svg width="41" height="40" viewBox="0 0 41 40" fill="none" xmlns="http://www.w3.org/2000/svg">
<rect x="2.5" y="2" width="36" height="36" rx="18" fill="#FCDAD7"/>
<rect x="2.5" y="2" width="36" height="36" rx="18" stroke="#FEEDEC" stroke-width="4"/>
<path d="M14.5 13C13.9477 13 13.5 13.4477 13.5 14V16C13.5 16.5523 13.0523 17 12.5 17C11.9477 17 11.5 16.5523 11.5 16V14C11.5 12.3431 12.8431 11 14.5 11H17.5C18.0523 11 18.5 11.4477 18.5 12C18.5 12.5523 18.0523 13 17.5 13H14.5Z" fill="#F04438"/>
<path d="M26.5 13C27.0523 13 27.5 13.4477 27.5 14V16C27.5 16.5523 27.9477 17 28.5 17C29.0523 17 29.5 16.5523 29.5 16V14C29.5 12.3431 28.1569 11 26.5 11H23.5C22.9477 11 22.5 11.4477 22.5 12C22.5 12.5523 22.9477 13 23.5 13H26.5Z" fill="#F04438"/>
<path d="M13.5 26C13.5 26.5523 13.9477 27 14.5 27H17.5C18.0523 27 18.5 27.4477 18.5 28C18.5 28.5523 18.0523 29 17.5 29H14.5C12.8431 29 11.5 27.6569 11.5 26V24C11.5 23.4477 11.9477 23 12.5 23C13.0523 23 13.5 23.4477 13.5 24V26Z" fill="#F04438"/>
<path d="M26.5 27C27.0523 27 27.5 26.5523 27.5 26V24C27.5 23.4477 27.9477 23 28.5 23C29.0523 23 29.5 23.4477 29.5 24V26C29.5 27.6569 28.1569 29 26.5 29H23.5C22.9477 29 22.5 28.5523 22.5 28C22.5 27.4477 22.9477 27 23.5 27H26.5Z" fill="#F04438"/>
<path d="M12.5 19C11.9477 19 11.5 19.4477 11.5 20C11.5 20.5523 11.9477 21 12.5 21H28.5C29.0523 21 29.5 20.5523 29.5 20C29.5 19.4477 29.0523 19 28.5 19H12.5Z" fill="#F04438"/>
</svg>
