<svg width="41" height="40" viewBox="0 0 41 40" fill="none" xmlns="http://www.w3.org/2000/svg">
<rect x="2.25" y="2" width="36" height="36" rx="18" fill="#CFE7DC"/>
<rect x="2.25" y="2" width="36" height="36" rx="18" stroke="#E7F4EE" stroke-width="4"/>
<path fill-rule="evenodd" clip-rule="evenodd" d="M14.888 12.1223C14.7069 11.1806 13.8829 10.5 12.924 10.5H11.25C10.6977 10.5 10.25 10.9477 10.25 11.5C10.25 12.0523 10.6977 12.5 11.25 12.5L12.924 12.5L14.8 22.2554C15.1622 24.1388 16.8102 25.5 18.728 25.5H24.9373C26.7544 25.5 28.3432 24.2752 28.8056 22.518L30.0568 17.7635C30.5574 15.8612 29.1226 14 27.1556 14H15.2491L14.888 12.1223ZM15.6337 16L16.764 21.8777C16.9451 22.8194 17.7691 23.5 18.728 23.5H24.9373C25.8459 23.5 26.6403 22.8876 26.8715 22.009L28.1227 17.2545C28.2895 16.6204 27.8113 16 27.1556 16H15.6337Z" fill="#0D894F"/>
<path d="M17 29.5C16.1715 29.5 15.5 28.8284 15.5 28C15.5 27.1716 16.1715 26.5 17 26.5C17.8284 26.5 18.5 27.1716 18.5 28C18.5 28.8284 17.8284 29.5 17 29.5Z" fill="#0D894F"/>
<path d="M25.75 29.5C24.9215 29.5 24.25 28.8284 24.25 28C24.25 27.1716 24.9215 26.5 25.75 26.5C26.5784 26.5 27.25 27.1716 27.25 28C27.25 28.8284 26.5784 29.5 25.75 29.5Z" fill="#0D894F"/>
</svg>
