<svg width="26" height="19" viewBox="0 0 26 19" fill="none" xmlns="http://www.w3.org/2000/svg">
<path d="M6.75 12.75H10.5C10.8315 12.75 11.1495 12.6183 11.3839 12.3839C11.6183 12.1495 11.75 11.8315 11.75 11.5C11.75 11.1685 11.6183 10.8505 11.3839 10.6161C11.1495 10.3817 10.8315 10.25 10.5 10.25H6.75C6.41848 10.25 6.10054 10.3817 5.86612 10.6161C5.6317 10.8505 5.5 11.1685 5.5 11.5C5.5 11.8315 5.6317 12.1495 5.86612 12.3839C6.10054 12.6183 6.41848 12.75 6.75 12.75ZM21.75 0.25H4.25C3.25544 0.25 2.30161 0.645088 1.59835 1.34835C0.895088 2.05161 0.5 3.00544 0.5 4V15.25C0.5 16.2446 0.895088 17.1984 1.59835 17.9017C2.30161 18.6049 3.25544 19 4.25 19H21.75C22.7446 19 23.6984 18.6049 24.4017 17.9017C25.1049 17.1984 25.5 16.2446 25.5 15.25V4C25.5 3.00544 25.1049 2.05161 24.4017 1.34835C23.6984 0.645088 22.7446 0.25 21.75 0.25ZM23 15.25C23 15.5815 22.8683 15.8995 22.6339 16.1339C22.3995 16.3683 22.0815 16.5 21.75 16.5H4.25C3.91848 16.5 3.60054 16.3683 3.36612 16.1339C3.1317 15.8995 3 15.5815 3 15.25V7.75H23V15.25ZM23 5.25H3V4C3 3.66848 3.1317 3.35054 3.36612 3.11612C3.60054 2.8817 3.91848 2.75 4.25 2.75H21.75C22.0815 2.75 22.3995 2.8817 22.6339 3.11612C22.8683 3.35054 23 3.66848 23 4V5.25Z" fill="#18ABB1"/>
</svg>
