<svg width="28" height="22" viewBox="0 0 28 22" fill="none" xmlns="http://www.w3.org/2000/svg">
<path d="M14.375 11.275C15.042 10.6977 15.5769 9.98361 15.9436 9.18128C16.3102 8.37895 16.5 7.50714 16.5 6.625C16.5 4.9674 15.8415 3.37769 14.6694 2.20558C13.4973 1.03348 11.9076 0.375 10.25 0.375C8.5924 0.375 7.00269 1.03348 5.83058 2.20558C4.65848 3.37769 4 4.9674 4 6.625C3.99999 7.50714 4.18975 8.37895 4.55641 9.18128C4.92306 9.98361 5.45803 10.6977 6.125 11.275C4.37517 12.0674 2.89058 13.3469 1.84873 14.9607C0.806869 16.5744 0.25184 18.4541 0.25 20.375C0.25 20.7065 0.381696 21.0245 0.616116 21.2589C0.850537 21.4933 1.16848 21.625 1.5 21.625C1.83152 21.625 2.14946 21.4933 2.38388 21.2589C2.6183 21.0245 2.75 20.7065 2.75 20.375C2.75 18.3859 3.54018 16.4782 4.9467 15.0717C6.35322 13.6652 8.26088 12.875 10.25 12.875C12.2391 12.875 14.1468 13.6652 15.5533 15.0717C16.9598 16.4782 17.75 18.3859 17.75 20.375C17.75 20.7065 17.8817 21.0245 18.1161 21.2589C18.3505 21.4933 18.6685 21.625 19 21.625C19.3315 21.625 19.6495 21.4933 19.8839 21.2589C20.1183 21.0245 20.25 20.7065 20.25 20.375C20.2482 18.4541 19.6931 16.5744 18.6513 14.9607C17.6094 13.3469 16.1248 12.0674 14.375 11.275V11.275ZM10.25 10.375C9.50832 10.375 8.7833 10.1551 8.16661 9.74301C7.54993 9.33096 7.06928 8.74529 6.78545 8.06006C6.50162 7.37484 6.42736 6.62084 6.57206 5.89341C6.71675 5.16598 7.0739 4.4978 7.59835 3.97335C8.1228 3.4489 8.79098 3.09175 9.51841 2.94706C10.2458 2.80236 10.9998 2.87662 11.6851 3.16045C12.3703 3.44428 12.956 3.92493 13.368 4.54161C13.7801 5.1583 14 5.88332 14 6.625C14 7.61956 13.6049 8.57339 12.9017 9.27665C12.1984 9.97991 11.2446 10.375 10.25 10.375ZM22.425 10.775C23.225 9.87416 23.7475 8.76132 23.9298 7.57042C24.112 6.37953 23.9462 5.16134 23.4522 4.0625C22.9583 2.96366 22.1572 2.03099 21.1456 1.37678C20.1339 0.722563 18.9548 0.374678 17.75 0.375C17.4185 0.375 17.1005 0.506696 16.8661 0.741117C16.6317 0.975537 16.5 1.29348 16.5 1.625C16.5 1.95652 16.6317 2.27446 16.8661 2.50888C17.1005 2.7433 17.4185 2.875 17.75 2.875C18.7446 2.875 19.6984 3.27009 20.4017 3.97335C21.1049 4.67661 21.5 5.63044 21.5 6.625C21.4982 7.28155 21.3241 7.92613 20.9951 8.49428C20.666 9.06242 20.1936 9.53423 19.625 9.8625C19.4397 9.9694 19.2849 10.1221 19.1755 10.3059C19.066 10.4898 19.0056 10.6986 19 10.9125C18.9948 11.1247 19.0437 11.3347 19.1421 11.5228C19.2405 11.7109 19.3852 11.8708 19.5625 11.9875L20.05 12.3125L20.2125 12.4C21.7192 13.1146 22.9904 14.245 23.8762 15.6579C24.7621 17.0708 25.2257 18.7074 25.2125 20.375C25.2125 20.7065 25.3442 21.0245 25.5786 21.2589C25.813 21.4933 26.131 21.625 26.4625 21.625C26.794 21.625 27.112 21.4933 27.3464 21.2589C27.5808 21.0245 27.7125 20.7065 27.7125 20.375C27.7227 18.4568 27.2423 16.5678 26.3168 14.8876C25.3914 13.2073 24.0517 11.7916 22.425 10.775V10.775Z" fill="#18ABB1"/>
</svg>
