<svg width="30" height="30" viewBox="0 0 30 30" fill="none" xmlns="http://www.w3.org/2000/svg">
<path d="M15.0002 17.744C14.7808 17.744 14.5653 17.6863 14.3752 17.5768L3.12521 11.0802C2.52722 10.7348 2.32245 9.97003 2.66785 9.37204C2.77755 9.18212 2.93528 9.02438 3.12521 8.91468L14.3752 2.42298C14.7623 2.2008 15.2382 2.2008 15.6252 2.42298L26.8752 8.91468C27.4732 9.26008 27.678 10.0249 27.3326 10.6228C27.2229 10.8128 27.0651 10.9705 26.8752 11.0802L15.6252 17.5768C15.4351 17.6863 15.2196 17.744 15.0002 17.744Z" fill="#18ABB1"/>
<path d="M26.8752 13.9148L24.4201 12.498L15.6252 17.5769C15.2384 17.7998 14.762 17.7998 14.3752 17.5769L5.58035 12.498L3.12521 13.9148C2.52722 14.2602 2.32245 15.0249 2.66785 15.6229C2.77755 15.8128 2.93528 15.9706 3.12521 16.0803L14.3752 22.5769C14.762 22.7998 15.2384 22.7998 15.6252 22.5769L26.8752 16.0803C27.4732 15.7349 27.678 14.9701 27.3326 14.3721C27.2229 14.1822 27.0651 14.0245 26.8752 13.9148Z" fill="#17999F"/>
<path d="M26.8752 18.9148L24.4201 17.498L15.6252 22.5769C15.2384 22.7998 14.762 22.7998 14.3752 22.5769L5.58035 17.498L3.12521 18.9148C2.52722 19.2602 2.32245 20.0249 2.66785 20.6229C2.77755 20.8128 2.93528 20.9706 3.12521 21.0803L14.3752 27.5769C14.762 27.7998 15.2384 27.7998 15.6252 27.5769L26.8752 21.0803C27.4732 20.7349 27.678 19.9701 27.3326 19.3721C27.2229 19.1822 27.0651 19.0245 26.8752 18.9148Z" fill="#177E83"/>
</svg>
