<svg width="28" height="24" viewBox="0 0 28 24" fill="none" xmlns="http://www.w3.org/2000/svg">
<path d="M0.25 12.625V18.875C0.25 19.2065 0.381696 19.5245 0.616116 19.7589C0.850537 19.9933 1.16848 20.125 1.5 20.125H2.75C2.75 21.1196 3.14509 22.0734 3.84835 22.7767C4.55161 23.4799 5.50544 23.875 6.5 23.875C7.49456 23.875 8.44839 23.4799 9.15165 22.7767C9.85491 22.0734 10.25 21.1196 10.25 20.125H17.75C17.75 21.1196 18.1451 22.0734 18.8483 22.7767C19.5516 23.4799 20.5054 23.875 21.5 23.875C22.4946 23.875 23.4484 23.4799 24.1517 22.7767C24.8549 22.0734 25.25 21.1196 25.25 20.125H26.5C26.8315 20.125 27.1495 19.9933 27.3839 19.7589C27.6183 19.5245 27.75 19.2065 27.75 18.875V3.875C27.75 2.88044 27.3549 1.92661 26.6517 1.22335C25.9484 0.520088 24.9946 0.125 24 0.125H12.75C11.7554 0.125 10.8016 0.520088 10.0983 1.22335C9.39509 1.92661 9 2.88044 9 3.875V6.375H6.5C5.91783 6.375 5.34366 6.51054 4.82295 6.7709C4.30224 7.03125 3.8493 7.40926 3.5 7.875L0.5 11.875C0.463439 11.9293 0.43403 11.9882 0.4125 12.05L0.3375 12.1875C0.282333 12.3269 0.252694 12.4751 0.25 12.625V12.625ZM20.25 20.125C20.25 19.8778 20.3233 19.6361 20.4607 19.4305C20.598 19.225 20.7932 19.0648 21.0216 18.9702C21.2501 18.8755 21.5014 18.8508 21.7439 18.899C21.9863 18.9472 22.2091 19.0663 22.3839 19.2411C22.5587 19.4159 22.6778 19.6387 22.726 19.8811C22.7742 20.1236 22.7495 20.3749 22.6548 20.6034C22.5602 20.8318 22.4 21.027 22.1945 21.1643C21.9889 21.3017 21.7472 21.375 21.5 21.375C21.1685 21.375 20.8505 21.2433 20.6161 21.0089C20.3817 20.7745 20.25 20.4565 20.25 20.125ZM11.5 3.875C11.5 3.54348 11.6317 3.22554 11.8661 2.99112C12.1005 2.7567 12.4185 2.625 12.75 2.625H24C24.3315 2.625 24.6495 2.7567 24.8839 2.99112C25.1183 3.22554 25.25 3.54348 25.25 3.875V17.625H24.275C23.9235 17.2383 23.4951 16.9293 23.0172 16.7179C22.5394 16.5065 22.0226 16.3973 21.5 16.3973C20.9774 16.3973 20.4606 16.5065 19.9828 16.7179C19.5049 16.9293 19.0765 17.2383 18.725 17.625H11.5V3.875ZM9 11.375H4L5.5 9.375C5.61643 9.21975 5.76741 9.09375 5.94098 9.00697C6.11455 8.92018 6.30594 8.875 6.5 8.875H9V11.375ZM5.25 20.125C5.25 19.8778 5.32331 19.6361 5.46066 19.4305C5.59801 19.225 5.79324 19.0648 6.02165 18.9702C6.25005 18.8755 6.50139 18.8508 6.74386 18.899C6.98634 18.9472 7.20907 19.0663 7.38388 19.2411C7.5587 19.4159 7.67775 19.6387 7.72598 19.8811C7.77421 20.1236 7.74946 20.3749 7.65485 20.6034C7.56024 20.8318 7.40002 21.027 7.19446 21.1643C6.9889 21.3017 6.74723 21.375 6.5 21.375C6.16848 21.375 5.85054 21.2433 5.61612 21.0089C5.3817 20.7745 5.25 20.4565 5.25 20.125ZM2.75 13.875H9V17.35C8.26229 16.6907 7.29392 16.3496 6.30587 16.4012C5.31781 16.4527 4.39015 16.8926 3.725 17.625H2.75V13.875Z" fill="#51C0C5"/>
</svg>
