<svg width="26" height="26" viewBox="0 0 26 26" fill="none" xmlns="http://www.w3.org/2000/svg">
<path d="M23.75 18H6.25C5.91848 18 5.60054 17.8683 5.36612 17.6339C5.1317 17.3995 5 17.0815 5 16.75C5 16.4185 5.1317 16.1005 5.36612 15.8661C5.60054 15.6317 5.91848 15.5 6.25 15.5H19.3C20.1358 15.5 20.9477 15.2209 21.6067 14.7068C22.2657 14.1927 22.7341 13.4732 22.9375 12.6625L25 4.55C25.0468 4.36551 25.0509 4.17277 25.0119 3.98646C24.9729 3.80016 24.8919 3.62523 24.775 3.475C24.6534 3.32092 24.4973 3.19762 24.3192 3.1151C24.1411 3.03258 23.9461 2.99315 23.75 3H5.95C5.69211 2.27056 5.21491 1.63875 4.58383 1.19117C3.95275 0.743598 3.19868 0.502174 2.425 0.5H1.25C0.918479 0.5 0.600537 0.631696 0.366116 0.866116C0.131696 1.10054 0 1.41848 0 1.75C0 2.08152 0.131696 2.39946 0.366116 2.63388C0.600537 2.8683 0.918479 3 1.25 3H2.425C2.71054 2.99168 2.99032 3.08142 3.21776 3.25427C3.44519 3.42712 3.60656 3.67266 3.675 3.95L3.75 4.55L5.9125 13C4.91794 13.0448 3.98189 13.4828 3.31028 14.2177C2.63866 14.9526 2.28649 15.9242 2.33125 16.9188C2.37601 17.9133 2.81402 18.8494 3.54892 19.521C4.28383 20.1926 5.25544 20.5448 6.25 20.5H6.475C6.26942 21.0664 6.20336 21.674 6.28241 22.2714C6.36147 22.8687 6.58331 23.4383 6.92915 23.9317C7.27499 24.4251 7.73464 24.828 8.26919 25.1061C8.80374 25.3842 9.39743 25.5294 10 25.5294C10.6026 25.5294 11.1963 25.3842 11.7308 25.1061C12.2654 24.828 12.725 24.4251 13.0709 23.9317C13.4167 23.4383 13.6385 22.8687 13.7176 22.2714C13.7966 21.674 13.7306 21.0664 13.525 20.5H16.475C16.2694 21.0664 16.2034 21.674 16.2824 22.2714C16.3615 22.8687 16.5833 23.4383 16.9291 23.9317C17.275 24.4251 17.7346 24.828 18.2692 25.1061C18.8037 25.3842 19.3974 25.5294 20 25.5294C20.6026 25.5294 21.1963 25.3842 21.7308 25.1061C22.2654 24.828 22.725 24.4251 23.0709 23.9317C23.4167 23.4383 23.6385 22.8687 23.7176 22.2714C23.7966 21.674 23.7306 21.0664 23.525 20.5H23.75C24.0815 20.5 24.3995 20.3683 24.6339 20.1339C24.8683 19.8995 25 19.5815 25 19.25C25 18.9185 24.8683 18.6005 24.6339 18.3661C24.3995 18.1317 24.0815 18 23.75 18ZM22.15 5.5L20.5125 12.05C20.4441 12.3273 20.2827 12.5729 20.0553 12.7457C19.8278 12.9186 19.548 13.0083 19.2625 13H8.475L6.6 5.5H22.15ZM10 23C9.75277 23 9.5111 22.9267 9.30554 22.7893C9.09997 22.652 8.93976 22.4568 8.84515 22.2284C8.75054 21.9999 8.72579 21.7486 8.77402 21.5061C8.82225 21.2637 8.9413 21.0409 9.11612 20.8661C9.29093 20.6913 9.51366 20.5723 9.75614 20.524C9.99861 20.4758 10.2499 20.5005 10.4784 20.5952C10.7068 20.6898 10.902 20.85 11.0393 21.0555C11.1767 21.2611 11.25 21.5028 11.25 21.75C11.25 22.0815 11.1183 22.3995 10.8839 22.6339C10.6495 22.8683 10.3315 23 10 23ZM20 23C19.7528 23 19.5111 22.9267 19.3055 22.7893C19.1 22.652 18.9398 22.4568 18.8451 22.2284C18.7505 21.9999 18.7258 21.7486 18.774 21.5061C18.8222 21.2637 18.9413 21.0409 19.1161 20.8661C19.2909 20.6913 19.5137 20.5723 19.7561 20.524C19.9986 20.4758 20.2499 20.5005 20.4784 20.5952C20.7068 20.6898 20.902 20.85 21.0393 21.0555C21.1767 21.2611 21.25 21.5028 21.25 21.75C21.25 22.0815 21.1183 22.3995 20.8839 22.6339C20.6495 22.8683 20.3315 23 20 23Z" fill="#CDCDCD"/>
</svg>
