<svg width="26" height="26" viewBox="0 0 26 26" fill="none" xmlns="http://www.w3.org/2000/svg">
<path d="M10.5 14.25H1.75C1.41848 14.25 1.10054 14.3817 0.866116 14.6161C0.631696 14.8505 0.5 15.1685 0.5 15.5V24.25C0.5 24.5815 0.631696 24.8995 0.866116 25.1339C1.10054 25.3683 1.41848 25.5 1.75 25.5H10.5C10.8315 25.5 11.1495 25.3683 11.3839 25.1339C11.6183 24.8995 11.75 24.5815 11.75 24.25V15.5C11.75 15.1685 11.6183 14.8505 11.3839 14.6161C11.1495 14.3817 10.8315 14.25 10.5 14.25ZM9.25 23H3V16.75H9.25V23ZM24.25 0.5H15.5C15.1685 0.5 14.8505 0.631696 14.6161 0.866116C14.3817 1.10054 14.25 1.41848 14.25 1.75V10.5C14.25 10.8315 14.3817 11.1495 14.6161 11.3839C14.8505 11.6183 15.1685 11.75 15.5 11.75H24.25C24.5815 11.75 24.8995 11.6183 25.1339 11.3839C25.3683 11.1495 25.5 10.8315 25.5 10.5V1.75C25.5 1.41848 25.3683 1.10054 25.1339 0.866116C24.8995 0.631696 24.5815 0.5 24.25 0.5V0.5ZM23 9.25H16.75V3H23V9.25ZM24.25 14.25H15.5C15.1685 14.25 14.8505 14.3817 14.6161 14.6161C14.3817 14.8505 14.25 15.1685 14.25 15.5V24.25C14.25 24.5815 14.3817 24.8995 14.6161 25.1339C14.8505 25.3683 15.1685 25.5 15.5 25.5H24.25C24.5815 25.5 24.8995 25.3683 25.1339 25.1339C25.3683 24.8995 25.5 24.5815 25.5 24.25V15.5C25.5 15.1685 25.3683 14.8505 25.1339 14.6161C24.8995 14.3817 24.5815 14.25 24.25 14.25ZM23 23H16.75V16.75H23V23ZM10.5 0.5H1.75C1.41848 0.5 1.10054 0.631696 0.866116 0.866116C0.631696 1.10054 0.5 1.41848 0.5 1.75V10.5C0.5 10.8315 0.631696 11.1495 0.866116 11.3839C1.10054 11.6183 1.41848 11.75 1.75 11.75H10.5C10.8315 11.75 11.1495 11.6183 11.3839 11.3839C11.6183 11.1495 11.75 10.8315 11.75 10.5V1.75C11.75 1.41848 11.6183 1.10054 11.3839 0.866116C11.1495 0.631696 10.8315 0.5 10.5 0.5V0.5ZM9.25 9.25H3V3H9.25V9.25Z" fill="#CDCDCD"/>
</svg>
