<svg width="30" height="30" viewBox="0 0 30 30" fill="none" xmlns="http://www.w3.org/2000/svg">
<g clip-path="url(#clip0_145_5868)">
<rect width="30" height="30" fill="white"/>
<g filter="url(#filter0_d_145_5868)">
<path d="M15.0002 17.744C14.7808 17.744 14.5653 17.6863 14.3752 17.5768L3.12521 11.0802C2.52722 10.7348 2.32245 9.97003 2.66785 9.37204C2.77755 9.18212 2.93528 9.02438 3.12521 8.91468L14.3752 2.42298C14.7623 2.2008 15.2382 2.2008 15.6252 2.42298L26.8752 8.91468C27.4732 9.26008 27.678 10.0249 27.3326 10.6228C27.2229 10.8128 27.0651 10.9705 26.8752 11.0802L15.6252 17.5768C15.4351 17.6863 15.2196 17.744 15.0002 17.744Z" fill="#CDCDCD"/>
<path d="M14.6248 17.1435C14.739 17.2093 14.8684 17.2439 15.0001 17.244L14.6248 17.1435ZM14.6248 17.1435L3.37529 10.6472C3.37528 10.6472 3.37526 10.6472 3.37525 10.6472C3.01641 10.4399 2.89354 9.98097 3.10081 9.62212L2.69778 9.38933M14.6248 17.1435L2.69778 9.38933M2.69778 9.38933L3.10081 9.62212C3.16661 9.5082 3.26121 9.41358 3.37511 9.34775C3.37517 9.34772 3.37523 9.34768 3.37529 9.34765L14.6241 2.85662C14.6243 2.85652 14.6245 2.85642 14.6246 2.85632C14.8573 2.72302 15.1431 2.72302 15.3758 2.85632M2.69778 9.38933L15.3758 2.85632M15.3758 2.85632C15.3759 2.85642 15.3761 2.85652 15.3763 2.85662L26.6251 9.34765C26.6252 9.34768 26.6252 9.34772 26.6253 9.34775C26.984 9.55508 27.1069 10.014 26.8996 10.3728C26.8338 10.4867 26.7391 10.5814 26.6251 10.6472L15.3756 17.1435C15.2615 17.2093 15.1321 17.2439 15.0003 17.244L15.3758 2.85632Z" stroke="#CDCDCD"/>
</g>
<path d="M26.8752 13.9148L24.4201 12.498L15.6252 17.5769C15.2384 17.7998 14.762 17.7998 14.3752 17.5769L5.58035 12.498L3.12521 13.9148C2.52722 14.2602 2.32245 15.0249 2.66785 15.6229C2.77755 15.8128 2.93528 15.9706 3.12521 16.0803L14.3752 22.5769C14.762 22.7998 15.2384 22.7998 15.6252 22.5769L26.8752 16.0803C27.4732 15.7349 27.678 14.9701 27.3326 14.3721C27.2229 14.1822 27.0651 14.0245 26.8752 13.9148Z" fill="#E7E1E1"/>
<path d="M26.8752 18.9148L24.4201 17.498L15.6252 22.5769C15.2384 22.7998 14.762 22.7998 14.3752 22.5769L5.58035 17.498L3.12521 18.9148C2.52722 19.2602 2.32245 20.0249 2.66785 20.6229C2.77755 20.8128 2.93528 20.9706 3.12521 21.0803L14.3752 27.5769C14.762 27.7998 15.2384 27.7998 15.6252 27.5769L26.8752 21.0803C27.4732 20.7349 27.678 19.9701 27.3326 19.3721C27.2229 19.1822 27.0651 19.0245 26.8752 18.9148Z" fill="#CDCDCD"/>
</g>
<defs>
<filter id="filter0_d_145_5868" x="-1.5" y="2.25635" width="33" height="23.4875" filterUnits="userSpaceOnUse" color-interpolation-filters="sRGB">
<feFlood flood-opacity="0" result="BackgroundImageFix"/>
<feColorMatrix in="SourceAlpha" type="matrix" values="0 0 0 0 0 0 0 0 0 0 0 0 0 0 0 0 0 0 127 0" result="hardAlpha"/>
<feOffset dy="4"/>
<feGaussianBlur stdDeviation="2"/>
<feComposite in2="hardAlpha" operator="out"/>
<feColorMatrix type="matrix" values="0 0 0 0 0 0 0 0 0 0 0 0 0 0 0 0 0 0 0.25 0"/>
<feBlend mode="normal" in2="BackgroundImageFix" result="effect1_dropShadow_145_5868"/>
<feBlend mode="normal" in="SourceGraphic" in2="effect1_dropShadow_145_5868" result="shape"/>
</filter>
<clipPath id="clip0_145_5868">
<rect width="30" height="30" fill="white"/>
</clipPath>
</defs>
</svg>
